<?xml version="1.0" encoding="UTF-8" standalone="no"?>
<svg
   xmlns:osb="http://www.openswatchbook.org/uri/2009/osb"
   xmlns:dc="http://purl.org/dc/elements/1.1/"
   xmlns:cc="http://creativecommons.org/ns#"
   xmlns:rdf="http://www.w3.org/1999/02/22-rdf-syntax-ns#"
   xmlns:svg="http://www.w3.org/2000/svg"
   xmlns="http://www.w3.org/2000/svg"
   viewBox="0 0 802.61768 446.29025"
   height="446.29025"
   width="802.61768"
   version="1.1"
   id="svg3336">
  <metadata
     id="metadata3342">
    <rdf:RDF>
      <cc:Work
         rdf:about="">
        <dc:format>image/svg+xml</dc:format>
        <dc:type
           rdf:resource="http://purl.org/dc/dcmitype/StillImage" />
        <dc:title></dc:title>
      </cc:Work>
    </rdf:RDF>
  </metadata>
  <defs
     id="defs3340">
    <linearGradient
       osb:paint="solid"
       id="linearGradient5663">
      <stop
         id="stop5665"
         offset="0"
         style="stop-color:#000000;stop-opacity:1;" />
    </linearGradient>
  </defs>
  <flowRoot
     transform="matrix(1.880445,0,0,1.880445,-3550.1787,238.33532)"
     style="font-style:normal;font-variant:normal;font-weight:normal;font-stretch:normal;font-size:27.5px;line-height:125%;font-family:'Showcard Gothic';-inkscape-font-specification:'Showcard Gothic';letter-spacing:0px;word-spacing:0px;fill:#000000;fill-opacity:1;stroke:none;stroke-width:1px;stroke-linecap:butt;stroke-linejoin:miter;stroke-opacity:1"
     id="flowRoot5787"
     xml:space="preserve"><flowRegion
       id="flowRegion5789"><rect
         style="font-style:normal;font-variant:normal;font-weight:normal;font-stretch:normal;font-size:27.5px;font-family:'Showcard Gothic';-inkscape-font-specification:'Showcard Gothic'"
         y="35"
         x="2120"
         height="123"
         width="302"
         id="rect5791" /></flowRegion><flowPara
       id="flowPara5793">©2016 madeby</flowPara></flowRoot>  <flowRoot
     transform="translate(-1197.1705,310.06696)"
     style="font-style:normal;font-variant:normal;font-weight:normal;font-stretch:normal;font-size:5px;line-height:125%;font-family:'Showcard Gothic';-inkscape-font-specification:'Showcard Gothic';letter-spacing:0px;word-spacing:0px;fill:#000000;fill-opacity:1;stroke:none;stroke-width:1px;stroke-linecap:butt;stroke-linejoin:miter;stroke-opacity:1"
     id="flowRoot5795"
     xml:space="preserve"><flowRegion
       id="flowRegion5797"><rect
         style="font-style:normal;font-variant:normal;font-weight:normal;font-stretch:normal;font-family:'Showcard Gothic';-inkscape-font-specification:'Showcard Gothic'"
         y="64.5"
         x="2124.75"
         height="39.75"
         width="128.75"
         id="rect5799" /></flowRegion><flowPara
       id="flowPara5801" /></flowRoot>  <flowRoot
     transform="translate(-1197.1705,310.06696)"
     style="font-style:normal;font-weight:normal;font-size:5px;line-height:125%;font-family:sans-serif;letter-spacing:0px;word-spacing:0px;fill:#000000;fill-opacity:1;stroke:none;stroke-width:1px;stroke-linecap:butt;stroke-linejoin:miter;stroke-opacity:1"
     id="flowRoot5803"
     xml:space="preserve"><flowRegion
       id="flowRegion5805"><rect
         y="67.75"
         x="2122"
         height="42"
         width="83.25"
         id="rect5807" /></flowRegion><flowPara
       id="flowPara5809" /></flowRoot>  <flowRoot
     style="font-style:normal;font-variant:normal;font-weight:normal;font-stretch:normal;font-size:45.65691757px;line-height:125%;font-family:'Showcard Gothic';-inkscape-font-specification:'Showcard Gothic';letter-spacing:0px;word-spacing:0px;fill:#000000;fill-opacity:1;stroke:none;stroke-width:1px;stroke-linecap:butt;stroke-linejoin:miter;stroke-opacity:1"
     id="flowRoot5787-3"
     xml:space="preserve"><flowRegion
       id="flowRegion5789-9"><rect
         style="font-style:normal;font-variant:normal;font-weight:normal;font-stretch:normal;font-size:45.65691757px;font-family:'Showcard Gothic';-inkscape-font-specification:'Showcard Gothic'"
         y="351.6113"
         x="437.63412"
         height="204.21095"
         width="501.396"
         id="rect5791-2" /></flowRegion><flowPara
       id="flowPara5793-7">cambiamentico</flowPara></flowRoot>  <g
     transform="translate(-1765.1705,348.06696)"
     id="g5997">
    <path
       style="opacity:1;fill:#000000;fill-opacity:1;stroke:none;stroke-width:1;stroke-miterlimit:4;stroke-dasharray:6, 6;stroke-dashoffset:0;stroke-opacity:1"
       d="m 2424.793,-157.58398 0,28.42187 7.9004,7.90039 13.7871,13.78711 a 20.85965,19.710602 0 0 1 13.5468,-4.75195 20.85965,19.710602 0 0 1 20.8614,19.710935 20.85965,19.710602 0 0 1 -5.8223,13.626953 l 14.9922,14.992188 a 42.202232,39.166615 0 0 0 12.9726,-28.236328 42.202232,39.166615 0 0 0 -42.2031,-39.166018 42.202232,39.166615 0 0 0 -14.3476,2.41016 l 0,-28.69531 -21.6875,0 z"
       id="rect5883-6" />
    <path
       style="opacity:1;fill:#000000;fill-opacity:1;stroke:none;stroke-width:1;stroke-miterlimit:4;stroke-dasharray:6, 6;stroke-dashoffset:0;stroke-opacity:1"
       d="m 2540.834,-128.48438 a 30.176832,28.276361 0 0 0 -30.1778,28.2754 l 0,44.312496 21.6876,0 0,-44.312496 c 0,-4.25369 3.7438,-7.75232 8.4902,-7.94141 l 0,-20.33399 z"
       id="rect5883-5-3" />
    <path
       style="opacity:1;fill:#000000;fill-opacity:1;stroke:none;stroke-width:1;stroke-miterlimit:4;stroke-dasharray:6, 6;stroke-dashoffset:0;stroke-opacity:1"
       d="m 2321.4831,-131.29883 a 42.202232,39.166615 0 0 0 -28.1347,10.03711 l 13.7871,13.78711 a 20.85965,19.710602 0 0 1 13.5469,-4.75195 20.85965,19.710602 0 0 1 20.8613,19.710935 20.85965,19.710602 0 0 1 -5.8223,13.626953 l 14.9922,14.992188 a 42.202232,39.166615 0 0 0 12.9727,-28.236328 42.202232,39.166615 0 0 0 -42.2032,-39.166018 z"
       id="path5870" />
    <path
       style="opacity:1;fill:#000000;fill-opacity:1;stroke:none;stroke-width:1;stroke-miterlimit:4;stroke-dasharray:6, 6;stroke-dashoffset:0;stroke-opacity:1"
       d="m 2253.2734,-161.7207 a 49.748508,52.911819 0 0 0 -49.748,52.91211 49.748508,52.911819 0 0 0 49.748,52.912106 49.748508,52.911819 0 0 0 35.8672,-16.333985 l -15.2519,-15.251953 a 27.060839,31.112698 0 0 1 -0.2657,0.320313 27.060839,31.112698 0 0 1 -1.9765,2.123047 27.060839,31.112698 0 0 1 -2.1504,1.886718 27.060839,31.112698 0 0 1 -2.3027,1.63086 27.060839,31.112698 0 0 1 -2.4336,1.357422 27.060839,31.112698 0 0 1 -2.541,1.070312 27.060839,31.112698 0 0 1 -2.6192,0.775391 27.060839,31.112698 0 0 1 -2.6738,0.470703 27.060839,31.112698 0 0 1 -2.7012,0.160156 27.060839,31.112698 0 0 1 -1.9141,-0.07813 27.060839,31.112698 0 0 1 -2.6855,-0.375 27.060839,31.112698 0 0 1 -2.6387,-0.681641 27.060839,31.112698 0 0 1 -2.5683,-0.980468 27.060839,31.112698 0 0 1 -2.4688,-1.269532 27.060839,31.112698 0 0 1 -2.3457,-1.546875 27.060839,31.112698 0 0 1 -2.2012,-1.810547 27.060839,31.112698 0 0 1 -2.0312,-2.052734 27.060839,31.112698 0 0 1 -1.8438,-2.27539 27.060839,31.112698 0 0 1 -1.6367,-2.47461 27.060839,31.112698 0 0 1 -1.414,-2.652344 27.060839,31.112698 0 0 1 -1.1758,-2.800781 27.060839,31.112698 0 0 1 -0.9278,-2.919922 27.060839,31.112698 0 0 1 -0.6699,-3.013676 27.060839,31.112698 0 0 1 -0.4043,-3.07617 27.060839,31.112698 0 0 1 -0.1347,-3.10547 27.060839,31.112698 0 0 1 0.068,-2.20117 27.060839,31.112698 0 0 1 0.3262,-3.08789 27.060839,31.112698 0 0 1 0.5918,-3.03321 27.060839,31.112698 0 0 1 0.8535,-2.95117 27.060839,31.112698 0 0 1 1.1035,-2.83984 27.060839,31.112698 0 0 1 1.3457,-2.69727 27.060839,31.112698 0 0 1 1.5742,-2.52928 27.060839,31.112698 0 0 1 1.7852,-2.33594 27.060839,31.112698 0 0 1 1.9785,-2.1211 27.060839,31.112698 0 0 1 2.1543,-1.88282 27.060839,31.112698 0 0 1 2.3067,-1.625 27.060839,31.112698 0 0 1 2.4355,-1.35156 27.060839,31.112698 0 0 1 2.541,-1.0664 27.060839,31.112698 0 0 1 2.6192,-0.76954 27.060839,31.112698 0 0 1 2.6757,-0.46484 27.060839,31.112698 0 0 1 2.7012,-0.15625 27.060839,31.112698 0 0 1 2.1953,0.10547 27.060839,31.112698 0 0 1 2.6817,0.41015 27.060839,31.112698 0 0 1 2.6328,0.7168 27.060839,31.112698 0 0 1 2.5566,1.01367 27.060839,31.112698 0 0 1 2.457,1.30274 27.060839,31.112698 0 0 1 2.3301,1.57812 27.060839,31.112698 0 0 1 2.1817,1.83789 27.060839,31.112698 0 0 1 2.0117,2.08008 l 15.2441,-15.24414 a 49.748508,52.911819 0 0 0 -35.2422,-15.60741 z"
       id="path5837" />
    <rect
       style="opacity:1;fill:#000000;fill-opacity:1;stroke:none;stroke-width:1;stroke-miterlimit:4;stroke-dasharray:6, 6;stroke-dashoffset:0;stroke-opacity:1"
       id="rect5883"
       width="21.6875"
       height="101.6875"
       x="2370.1052"
       y="-157.58398" />
    <rect
       style="opacity:1;fill:#000000;fill-opacity:1;stroke:none;stroke-width:1;stroke-miterlimit:4;stroke-dasharray:6, 6;stroke-dashoffset:0;stroke-opacity:1"
       id="rect5883-5"
       width="21.6875"
       height="72.519554"
       x="2397.1052"
       y="-128.41605" />
    <rect
       style="opacity:1;fill:#000000;fill-opacity:1;stroke:none;stroke-width:1;stroke-miterlimit:4;stroke-dasharray:6, 6;stroke-dashoffset:0;stroke-opacity:1"
       id="rect5883-5-5"
       width="21.6875"
       height="72.519554"
       x="2545.8328"
       y="-128.41605" />
    <path
       style="fill:#000000;fill-opacity:1;fill-rule:evenodd;stroke:none;stroke-width:1px;stroke-linecap:butt;stroke-linejoin:miter;stroke-opacity:1"
       d="m 2549.2648,-143.08331 14.4991,0 -9.7756,-27.17993 -18.8709,-0.13259 z"
       id="path5986" />
  </g>
  <g
     transform="matrix(0.71787053,0,0,0.71787053,-1565.9915,752.38142)"
     id="g3371">
    <path
       id="path3373"
       d="m 2601.9707,-431.39566 c -3.287,-5.50475 -15.1826,-31.69747 -17.1611,-37.78679 -1.5008,-4.61892 -5.6494,-8.99243 -8.5301,-8.99243 -3.3356,0 -5.1319,2.48559 -9.4488,13.07394 -5.6513,13.86148 -9.092,20.48124 -12.1861,23.44561 l -2.7542,2.63872 -2.0629,-2.21418 c -3.1098,-3.33805 -4.9771,-7.86704 -8.7652,-21.26022 -4.0626,-14.36347 -7.4107,-20.03017 -12.107,-20.49129 -2.674,-0.26255 -4.1584,0.66166 -10.1686,6.33143 -4.3942,4.14529 -7.7052,6.51026 -8.8152,6.29651 -1.1731,-0.22593 -3.1494,-3.56911 -5.8117,-9.83143 -3.9426,-9.27381 -4.1535,-9.54581 -9.2976,-11.98909 -3.4224,-1.62553 -5.4629,-3.27976 -5.8335,-4.72922 -0.5743,-2.24567 0.9303,-14.79669 4.6479,-38.77078 1.1683,-7.53442 2.4359,-23.09029 3.015,-37 1.5008,-36.05017 5.4204,-68.74599 13.5465,-113 8.2225,-44.77898 12.2117,-70.59032 13.9868,-90.5 0.5769,-6.47009 0.4127,-7.80582 -1.1956,-9.72706 -1.0254,-1.22488 -10.1893,-6.56958 -20.3643,-11.87709 -21.6182,-11.27656 -22.3185,-11.72832 -31.52,-20.33195 -3.861,-3.61014 -9.3906,-7.83879 -12.288,-9.39698 -8.14,-4.37766 -28.6574,-11.55111 -39.192,-13.70262 -12.8628,-2.62699 -22.0019,-5.68161 -38,-12.7009 -12.6797,-5.56331 -37.3141,-18.35409 -43.1036,-22.38043 -1.432,-0.99589 -8.182,-4.5452 -15,-7.88736 -6.818,-3.34216 -14.8714,-7.3667 -17.8964,-8.94343 -5.3671,-2.79753 -19.657,-7.27211 -33.2758,-10.41961 -3.7267,-0.8613 -11.8267,-4.01171 -18,-7.00091 -6.1733,-2.9892 -15.0834,-6.59478 -19.8003,-8.01239 -5.0569,-1.5198 -9.3656,-3.46885 -10.5,-4.74969 -3.6727,-4.14678 -10.7642,-7.81733 -22.9461,-11.87696 -14.3355,-4.77736 -19.565,-8.43251 -19.7005,-13.76971 -0.2599,-10.23762 21.2252,-22.99826 45.9593,-27.29656 22.3442,-3.88297 74.56,-6.38342 95.2634,-4.56184 30.815,2.71124 50.9277,4.83566 58.5,6.17912 10.8661,1.92783 15.5012,2.32175 41,3.4844 12.1,0.55171 24.7,1.41856 28,1.92632 12.0264,1.85045 26.2793,3.90829 38.5,5.55861 6.875,0.92842 17.4977,2.96828 23.6061,4.53301 11.1308,2.8513 26.9211,5.29472 41.8981,6.4834 16.2199,1.28733 29.7292,-1.41605 73.4958,-14.70734 30.4021,-9.2327 34.1433,-11.55787 54.566,-33.91285 15.7479,-17.2379 32.5566,-32.799 40.768,-37.742 3.045,-1.833 8.8281,-4.6856 12.8512,-6.339 7.0306,-2.8894 7.7616,-2.987 18.8148,-2.5105 14.3712,0.6195 28.0983,4.0275 40.6841,10.1007 11.1372,5.3742 19.8276,11.1643 36.426,24.2694 26.0919,20.60067 32.5647,23.55926 81.3899,37.20197 33.344,9.31694 108.1593,33.29044 114.5,36.68985 2.4714,1.32501 2.4742,1.34078 0.2387,1.38036 -2.3912,0.0423 -14.8161,-3.58757 -42.7387,-12.48611 -17.2641,-5.50181 -36.3141,-10.11179 -53.5,-12.94667 -16.376,-2.70129 -27.9112,-5.59263 -46.4021,-11.63084 -25.2216,-8.23615 -33.6299,-12.59149 -47.0979,-24.3957 -17.3337,-15.19236 -26.7245,-20.54456 -35.9315,-20.47866 -7.4721,0.054 -16.8333,7.5424 -18.141,14.5125 -1.5658,8.34673 2.4228,16.67471 9.7364,20.32913 l 4.3361,2.16661 -6.4099,-0.26511 c -4.4184,-0.18275 -6.5408,0.12133 -6.8313,0.97873 -0.5663,1.67182 3.3313,3.05788 15.0267,5.34365 12.5503,2.45289 19.8306,2.41457 29.7497,-0.15658 6.9966,-1.81361 8.6911,-1.92303 13.7235,-0.8862 6.6388,1.3678 17.1455,5.8932 19.0439,8.20249 1.4538,1.76843 0.9665,2.02622 -6.0789,3.21572 -5.5584,0.93844 -18.4738,5.30638 -24.2156,8.18964 -2.7545,1.38314 -9.0093,5.05103 -13.8997,8.15087 -7.8988,5.00669 -10.1595,7.18813 -20.2449,19.53472 l -11.3531,13.89864 0.5673,5.6316 c 2.3149,22.97728 6.528,42.62687 13.3938,62.46885 4.5615,13.1822 9.4773,23.42888 19.9854,41.65811 3.8978,6.7618 6.9019,12.47914 6.6759,12.70521 -0.8494,0.84938 -19.5222,3.55587 -20.8959,3.02872 -1.4481,-0.5557 -12.5443,-25.63105 -23.5546,-53.22928 -7.784,-19.51136 -8.2587,-20.5 -9.8428,-20.5 -1.9232,0 -1.7436,1.45243 2.2665,18.32638 4.3207,18.18141 9.3008,35.41513 13.928,48.19795 1.871,5.16855 3.0571,9.61036 2.6358,9.87071 -1.8078,1.1173 -18.3108,2.8582 -19.077,2.01245 -0.9542,-1.05309 -5.1328,-15.90462 -8.1335,-28.90749 -1.1423,-4.95 -6.9769,-33.47895 -12.9658,-63.39766 -5.9888,-29.91871 -11.3232,-54.832 -11.854,-55.36286 -1.898,-1.89793 -2.8874,0.33323 -3.5427,7.98855 -1.9413,22.67924 7.8084,102.19524 16.4633,134.27079 1.2008,4.45013 1.9289,8.34548 1.6181,8.65635 -0.3109,0.31086 -3.8364,0.62812 -7.8345,0.70502 l -7.2692,0.13981 -2.7682,-14 c -1.5226,-7.7 -4.843,-26.375 -7.3787,-41.5 -2.5358,-15.125 -4.9801,-27.88829 -5.4319,-28.36287 -0.4518,-0.47457 -1.3802,-0.51755 -2.0631,-0.0955 -2.3523,1.45385 -0.01,51.54516 3.5362,75.45837 0.7738,5.225 1.0973,9.79584 0.719,10.15742 -0.3783,0.36158 -3.1555,0.81158 -6.1715,1 l -5.4837,0.34258 -1.3243,-4 c -2.343,-7.07709 -5.0877,-25.73018 -6.4153,-43.59803 -1.4686,-19.76591 -1.7014,-64.71286 -0.4565,-88.15197 0.7522,-14.1628 0.6741,-15.75 -0.7747,-15.75 -2.1201,0 -2.9323,2.3528 -5.9098,17.12043 -3.9594,19.63752 -5.165,34.86424 -5.0181,63.37957 0.1029,20.00114 0.6952,31.1719 2.5668,48.41585 l 2.433,22.41585 -2.3296,2.0256 c -1.2813,1.11408 -4.4063,5.87695 -6.9445,10.58415 -2.5381,4.7072 -9.0778,15.69205 -14.5326,24.41078 -5.4549,8.71873 -10.1612,17.06893 -10.4587,18.55601 -0.7294,3.6472 1.1736,5.03033 9.2502,6.72333 8.7076,1.82528 12.8366,3.877 14.31,7.11086 1.4637,3.21257 2.6405,21.85452 1.6329,25.86897 -0.6769,2.69689 -0.8125,2.76568 -2.0679,1.04881 -0.7389,-1.01055 -1.8651,-5.06001 -2.5025,-8.99879 -2.0909,-12.91915 -3.1341,-16.52382 -5.5306,-19.10961 -3.0849,-3.32866 -8.2641,-3.46832 -11.1927,-0.30181 -1.8793,2.03203 -5.0728,15.19635 -7.738,31.89855 -0.6533,4.09371 -3.9333,8.85145 -6.1023,8.85145 -2.1618,0 -1.7239,-2.90204 1.3132,-8.70275 l 2.7406,-5.23445 -1.7651,-6.72971 c -0.9708,-3.70134 -2.4988,-7.54047 -3.3956,-8.5314 -2.6317,-2.90809 -6.8282,-2.24126 -11.2958,1.79495 -4.8289,4.3626 -7.0761,7.88914 -10.8117,16.96673 -1.57,3.81515 -4.0602,8.68693 -5.5338,10.82618 -1.6976,2.46455 -2.6773,5.21228 -2.6739,7.5 0.01,3.7697 0.1592,4.05792 8.8834,16.65215 6.3099,9.10897 9.0721,14.93792 23.9107,50.4583 18.4941,44.2709 25.265,64.53453 30.1229,90.15103 2.2859,12.05378 4.517,36.96243 3.628,40.50439 -1.2215,4.86705 -6.1886,2.06765 -14.9112,-8.40384 -8.835,-10.60631 -14.0241,-12.63844 -15.0786,-5.90503 -0.2716,1.7344 -0.6471,11.47845 -0.8344,21.65345 -0.3673,19.9449 -1.0558,23 -5.1834,23 -3.6334,0 -8.7723,-6.77611 -16.1655,-21.31571 -7.5483,-14.84441 -12.195,-20.68429 -16.4584,-20.68429 -1.691,0 -3.2272,0.71107 -3.7805,1.75 -0.5127,0.9625 -2.3365,10.075 -4.0529,20.25 -3.7972,22.51009 -5.2678,28.41144 -7.1714,28.77806 -0.8532,0.16431 -2.7611,-1.90519 -4.6083,-4.99884 z m 44.9646,-363.85715 c 0.4416,-2.43214 3.7024,-19.04707 7.2463,-36.92207 5.7847,-29.17661 14.4834,-83.94478 14.4834,-91.18908 0,-4.50352 -2.8006,-3.44085 -5.1104,1.93908 -6.9735,16.24297 -16.8352,52.80827 -19.5792,72.59566 -1.7619,12.70595 -2.5192,53.42309 -1.0599,56.9875 1.2202,2.98024 3.1581,1.33578 4.0198,-3.41109 z m -49.9956,-18.17207 c 0.8505,-2.3375 4.7189,-12.8 8.5964,-23.25 9.7042,-26.15303 20.9592,-62.00307 19.8225,-63.13973 -1.6015,-1.60153 -3.9412,1.43813 -9.4772,12.31284 -8.9576,17.59616 -13.9828,30.32636 -17.6949,44.82689 -3.4817,13.60013 -6.137,30.69504 -5.0429,32.46544 1.1951,1.93367 2.2466,1.043 3.7961,-3.21544 z m -46.0318,-24 c 2.0248,-3.9875 5.7791,-11.075 8.3428,-15.75 7.9306,-14.46117 19.521,-40.29331 18.5256,-41.28873 -2.2304,-2.23034 -19.4314,24.50787 -25.5966,39.78873 -4.1882,10.38051 -7.7064,22.38078 -6.93,23.6371 1.0974,1.77559 2.0718,0.67566 5.6582,-6.3871 z m 287.922,27.10608 c -9.2992,-15.66475 -25.9696,-49.4545 -30.517,-61.85608 -4.6603,-12.70925 -11.0776,-35.54203 -11.4747,-39.21329 -0.2215,-5.30592 4.1674,-5.11116 7.8268,-5.00116 5.225,0.15705 11.6707,0.54134 14.3237,0.85397 4.811,0.56694 4.8306,0.58449 7.4677,6.71445 14.1853,32.97383 30.6622,58.18167 61.2182,93.65716 3.8972,4.5247 6.9214,8.3912 6.7204,8.59223 -0.8541,0.85404 -15.9655,3.52026 -17.2211,3.03843 -1.3449,-0.5161 -15.7626,-19.34608 -34.3725,-44.89179 -5.1086,-7.0125 -9.7041,-12.75 -10.2124,-12.75 -2.4311,0 -0.1472,5.95336 8.5286,22.23057 5.1977,9.75182 12.1722,22.06118 15.4989,27.35415 3.3267,5.29296 6.0485,9.97792 6.0485,10.41102 0,1.02046 -3.5298,1.88378 -10.7246,2.62301 l -5.7754,0.5934 z m 76.1903,-0.67166 c -1.6444,-1.07122 -16.9723,-18.59925 -26.3958,-30.18454 -18.3243,-22.52788 -27.8494,-36.81126 -37.7402,-56.59357 -8.8405,-17.6816 -8.8917,-16.40631 0.6586,-16.40631 l 8.0125,0 19.4118,24.25 c 29.2832,36.58202 47.9481,56.16775 64.4351,67.61402 2.8804,1.99979 5.0974,4.07254 4.9266,4.60612 -0.1708,0.53357 -6.1275,2.13753 -13.2372,3.56434 -7.1096,1.4268 -14.2978,2.87323 -15.9737,3.21428 -1.6759,0.34104 -3.5199,0.31209 -4.0977,-0.0643 z m 53.0637,-24.93442 c -21.2656,-14.28211 -35.1277,-25.24905 -50.156,-39.6808 -14.9333,-14.34051 -33.7758,-35.47691 -32.605,-36.57441 0.4631,-0.43419 3.6162,-0.49814 7.0068,-0.14211 6.1274,0.6434 6.2575,0.72431 21.5,13.36809 43.1478,35.79149 77.7152,56.73391 103.5853,62.7565 5.369,1.24992 6.6129,2.46794 3.5,3.42728 -4.7944,1.47755 -32.6632,7.59545 -34.5995,7.59545 -1.2238,0 -9.4281,-4.8375 -18.2316,-10.75 z m 84.5811,-11.96044 c -4.5534,-0.79788 -19.3277,-5.47375 -31.5,-9.96931 -16.1466,-5.96337 -32.3108,-14.00697 -45.2762,-22.53025 -11.0193,-7.24399 -30.8401,-22.57882 -35.1481,-27.19325 l -2.4243,-2.59675 5.2814,0 c 4.9235,0 6.1987,0.58561 18.8175,8.64158 37.2059,23.75263 70.1979,36.29037 106.5221,40.48093 6.7048,0.7735 10.6392,1.64581 10.4195,2.31013 -0.1942,0.58705 -3.823,3.42986 -8.064,6.31736 -7.9015,5.37971 -10.3827,5.98437 -18.6279,4.53956 z m 23.5,-36.2333 c -8.8,-1.53738 -19.825,-3.79 -24.5,-5.00582 -18.484,-4.80712 -51,-16.32564 -51,-18.06632 0,-0.86312 2.13,-0.78192 26,0.99108 10.9683,0.8147 13.5416,1.3721 21,4.54885 11.2459,4.7899 28.1451,9.80579 40.5,12.02089 5.5,0.98609 10.3945,2.13393 10.8768,2.55076 0.4822,0.41683 0.5861,1.91582 0.2309,3.33108 -0.8269,3.29474 -2.2591,3.27177 -23.1077,-0.37052 z m -272.3717,-99.07358 c 5.8968,-0.99641 7.8747,-2.08311 11.68,-6.41714 2.9081,-3.31213 5.1737,-8.91067 5.1861,-12.81556 0.01,-2.6216 1.9191,-2.1076 3.0304,0.8151 4.0986,10.78014 -4.2043,19.41384 -18.5248,19.26291 l -6,-0.0632 4.6283,-0.78207 z"
       style="fill-opacity:1" />
  </g>
</svg>
