<?xml version="1.0" encoding="UTF-8" standalone="no"?>
<!-- Created with Inkscape (http://www.inkscape.org/) -->

<svg
   xmlns:dc="http://purl.org/dc/elements/1.1/"
   xmlns:cc="http://creativecommons.org/ns#"
   xmlns:rdf="http://www.w3.org/1999/02/22-rdf-syntax-ns#"
   xmlns:svg="http://www.w3.org/2000/svg"
   xmlns="http://www.w3.org/2000/svg"
   xmlns:sodipodi="http://sodipodi.sourceforge.net/DTD/sodipodi-0.dtd"
   xmlns:inkscape="http://www.inkscape.org/namespaces/inkscape"
   width="5.6999998mm"
   height="5.6999998mm"
   viewBox="0 0 20.19685 20.19685"
   id="svg7558"
   version="1.1"
   inkscape:version="0.91 r13725"
   sodipodi:docname="camera.svg">
  <defs
     id="defs7560" />
  <sodipodi:namedview
     id="base"
     pagecolor="#ffffff"
     bordercolor="#666666"
     borderopacity="1.0"
     inkscape:pageopacity="0.0"
     inkscape:pageshadow="2"
     inkscape:zoom="22.627417"
     inkscape:cx="13.106982"
     inkscape:cy="9.137885"
     inkscape:document-units="px"
     inkscape:current-layer="layer1"
     showgrid="false"
     fit-margin-top="0"
     fit-margin-left="0"
     fit-margin-right="0"
     fit-margin-bottom="0"
     inkscape:window-width="1366"
     inkscape:window-height="745"
     inkscape:window-x="-8"
     inkscape:window-y="-8"
     inkscape:window-maximized="1"
     inkscape:snap-intersection-paths="true"
     inkscape:snap-midpoints="true"
     inkscape:object-nodes="true"
     inkscape:object-paths="false"
     inkscape:snap-smooth-nodes="true"
     inkscape:snap-nodes="false" />
  <metadata
     id="metadata7563">
    <rdf:RDF>
      <cc:Work
         rdf:about="">
        <dc:format>image/svg+xml</dc:format>
        <dc:type
           rdf:resource="http://purl.org/dc/dcmitype/StillImage" />
        <dc:title></dc:title>
      </cc:Work>
    </rdf:RDF>
  </metadata>
  <g
     inkscape:label="Livello 1"
     inkscape:groupmode="layer"
     id="layer1"
     transform="translate(-350.60816,-629.42456)">
    <g
       transform="translate(-53.170989,197.07726)"
       id="g7358">
      <path
         inkscape:connector-curvature="0"
         id="rect4919"
         d="m 412.0605,434.26562 c -0.97934,0 -1.76758,0.80805 -1.76758,1.8125 l 0,0.40821 -2.70117,0 c -0.97935,0 -1.76758,0.79018 -1.76758,1.76953 l 0,8.52539 c 0,0.97934 0.78823,1.76758 1.76758,1.76758 l 12.52734,0 c 0.97935,0 1.76758,-0.78824 1.76758,-1.76758 l 0,-8.52539 c 0,-0.97935 -0.78823,-1.76953 -1.76758,-1.76953 l -2.70117,0 0,-0.40821 c 0,-1.00445 -0.79018,-1.8125 -1.76953,-1.8125 l -3.58789,0 z m 1.79492,3.47071 a 4.78125,4.78125 0 0 1 4.78125,4.78125 4.78125,4.78125 0 0 1 -4.78125,4.78125 4.78125,4.78125 0 0 1 -4.78125,-4.78125 4.78125,4.78125 0 0 1 4.78125,-4.78125 z"
         style="opacity:1;fill:#000000;fill-opacity:1;fill-rule:nonzero;stroke:none;stroke-width:2;stroke-miterlimit:4;stroke-dasharray:none;stroke-dashoffset:0;stroke-opacity:1" />
      <path
         inkscape:connector-curvature="0"
         id="path4923-0"
         d="m 413.85542,439 a 3.5185752,3.5185752 0 0 0 -3.51953,3.51758 3.5185752,3.5185752 0 0 0 3.51953,3.51953 3.5185752,3.5185752 0 0 0 3.51953,-3.51953 A 3.5185752,3.5185752 0 0 0 413.85542,439 Z m 0,1.10547 a 2.4137208,2.4137208 0 0 1 2.41406,2.41211 2.4137208,2.4137208 0 0 1 -2.41406,2.41406 2.4137208,2.4137208 0 0 1 -2.41406,-2.41406 2.4137208,2.4137208 0 0 1 2.41406,-2.41211 z"
         style="opacity:1;fill:#000000;fill-opacity:1;fill-rule:nonzero;stroke:none;stroke-width:2;stroke-miterlimit:4;stroke-dasharray:none;stroke-dashoffset:0;stroke-opacity:1" />
    </g>
  </g>
</svg>
