<?xml version="1.0" encoding="UTF-8" standalone="no"?>
<!-- Created with Inkscape (http://www.inkscape.org/) -->

<svg
   xmlns:dc="http://purl.org/dc/elements/1.1/"
   xmlns:cc="http://creativecommons.org/ns#"
   xmlns:rdf="http://www.w3.org/1999/02/22-rdf-syntax-ns#"
   xmlns:svg="http://www.w3.org/2000/svg"
   xmlns="http://www.w3.org/2000/svg"
   xmlns:sodipodi="http://sodipodi.sourceforge.net/DTD/sodipodi-0.dtd"
   xmlns:inkscape="http://www.inkscape.org/namespaces/inkscape"
   width="5.6999998mm"
   height="5.6999998mm"
   viewBox="0 0 20.19685 20.19685"
   id="svg7558"
   version="1.1"
   inkscape:version="0.91 r13725"
   sodipodi:docname="folder-add.svg">
  <defs
     id="defs7560" />
  <sodipodi:namedview
     id="base"
     pagecolor="#ffffff"
     bordercolor="#666666"
     borderopacity="1.0"
     inkscape:pageopacity="0.0"
     inkscape:pageshadow="2"
     inkscape:zoom="15.839192"
     inkscape:cx="18.653036"
     inkscape:cy="6.746662"
     inkscape:document-units="px"
     inkscape:current-layer="layer1"
     showgrid="false"
     fit-margin-top="0"
     fit-margin-left="0"
     fit-margin-right="0"
     fit-margin-bottom="0"
     inkscape:window-width="1366"
     inkscape:window-height="745"
     inkscape:window-x="-8"
     inkscape:window-y="-8"
     inkscape:window-maximized="1"
     inkscape:snap-intersection-paths="true"
     inkscape:snap-midpoints="true"
     inkscape:object-nodes="false" />
  <metadata
     id="metadata7563">
    <rdf:RDF>
      <cc:Work
         rdf:about="">
        <dc:format>image/svg+xml</dc:format>
        <dc:type
           rdf:resource="http://purl.org/dc/dcmitype/StillImage" />
        <dc:title></dc:title>
      </cc:Work>
    </rdf:RDF>
  </metadata>
  <g
     inkscape:label="Livello 1"
     inkscape:groupmode="layer"
     id="layer1"
     transform="translate(-350.60816,-629.42456)">
    <path
       inkscape:connector-curvature="0"
       style="opacity:1;fill:#000000;fill-opacity:1;fill-rule:nonzero;stroke:none;stroke-width:1;stroke-miterlimit:4;stroke-dasharray:none;stroke-dashoffset:0;stroke-opacity:1"
       d="m 353.94386,632.80459 0.36719,1.53125 -1.02539,0 0.68946,2.1875 13.3789,0 0.68945,-2.1875 -8.04882,0 0.39843,-1.53125 -3.22461,0 -3.22461,0 z m -1.5039,4.66601 2.72266,8.63086 7.52734,0 a 4.3530607,4.3530607 0 0 1 4.34766,-4.26562 4.3530607,4.3530607 0 0 1 0.28124,0.0137 l 1.38086,-4.37891 -8.1289,0 -8.13086,0 z m 14.59961,5.26368 c -1.90875,-6e-4 -3.45654,1.54632 -3.45703,3.45507 4.8e-4,1.90875 1.54828,3.45568 3.45703,3.45508 1.90799,-4.8e-4 3.4546,-1.54709 3.45508,-3.45508 -4.9e-4,-1.90798 -1.5471,-3.45459 -3.45508,-3.45507 z m -0.67188,1.03906 1.3418,0 0,1.74609 1.74414,0 0,1.33985 -1.74414,0 0,1.74609 -1.3418,0 0,-1.74609 -1.74609,0 0,-1.33985 1.74609,0 0,-1.74609 z"
       id="path5699-3" />
  </g>
</svg>
