<?xml version="1.0" encoding="UTF-8" standalone="no"?>
<!-- Created with Inkscape (http://www.inkscape.org/) -->

<svg
   xmlns:dc="http://purl.org/dc/elements/1.1/"
   xmlns:cc="http://creativecommons.org/ns#"
   xmlns:rdf="http://www.w3.org/1999/02/22-rdf-syntax-ns#"
   xmlns:svg="http://www.w3.org/2000/svg"
   xmlns="http://www.w3.org/2000/svg"
   xmlns:sodipodi="http://sodipodi.sourceforge.net/DTD/sodipodi-0.dtd"
   xmlns:inkscape="http://www.inkscape.org/namespaces/inkscape"
   width="5.6999998mm"
   height="5.6999998mm"
   viewBox="0 0 20.19685 20.19685"
   id="svg7558"
   version="1.1"
   inkscape:version="0.91 r13725"
   sodipodi:docname="fumetto-rect-points.svg">
  <defs
     id="defs7560" />
  <sodipodi:namedview
     id="base"
     pagecolor="#ffffff"
     bordercolor="#666666"
     borderopacity="1.0"
     inkscape:pageopacity="0.0"
     inkscape:pageshadow="2"
     inkscape:zoom="16"
     inkscape:cx="3.2719487"
     inkscape:cy="13.226916"
     inkscape:document-units="px"
     inkscape:current-layer="layer1"
     showgrid="false"
     fit-margin-top="0"
     fit-margin-left="0"
     fit-margin-right="0"
     fit-margin-bottom="0"
     inkscape:window-width="1366"
     inkscape:window-height="745"
     inkscape:window-x="-8"
     inkscape:window-y="-8"
     inkscape:window-maximized="1"
     inkscape:snap-intersection-paths="false"
     inkscape:snap-midpoints="true"
     inkscape:object-nodes="false"
     inkscape:object-paths="false"
     inkscape:snap-smooth-nodes="true"
     inkscape:snap-nodes="true" />
  <metadata
     id="metadata7563">
    <rdf:RDF>
      <cc:Work
         rdf:about="">
        <dc:format>image/svg+xml</dc:format>
        <dc:type
           rdf:resource="http://purl.org/dc/dcmitype/StillImage" />
        <dc:title></dc:title>
      </cc:Work>
    </rdf:RDF>
  </metadata>
  <g
     inkscape:label="Livello 1"
     inkscape:groupmode="layer"
     id="layer1"
     transform="translate(-350.60816,-629.42456)">
    <path
       inkscape:connector-curvature="0"
       style="opacity:1;fill:#000000;fill-opacity:1;fill-rule:nonzero;stroke:none;stroke-width:1;stroke-miterlimit:4;stroke-dasharray:none;stroke-dashoffset:0;stroke-opacity:1"
       d="m 354.67541,631.97191 c -1.05279,0 -1.90039,0.8476 -1.90039,1.90039 l 0,9.54688 c 0,1.05279 0.8476,1.90039 1.90039,1.90039 l 1.20508,0 c -0.0529,1.21362 -0.51113,1.65386 -1.12891,2.1543 2.06096,-0.36411 3.75403,-1.11216 5.16407,-2.1543 l 6.6914,0 c 1.0528,0 1.90039,-0.8476 1.90039,-1.90039 l 0,-9.54688 c 0,-1.05279 -0.84759,-1.90039 -1.90039,-1.90039 l -11.93164,0 z m 2.0586,5.375 a 1.1875,1.1875 0 0 1 1.1875,1.1875 1.1875,1.1875 0 0 1 -1.1875,1.1875 1.1875,1.1875 0 0 1 -1.1875,-1.1875 1.1875,1.1875 0 0 1 1.1875,-1.1875 z m 3.90625,0 a 1.1875,1.1875 0 0 1 1.1875,1.1875 1.1875,1.1875 0 0 1 -1.1875,1.1875 1.1875,1.1875 0 0 1 -1.1875,-1.1875 1.1875,1.1875 0 0 1 1.1875,-1.1875 z m 3.90625,0 a 1.1875,1.1875 0 0 1 1.1875,1.1875 1.1875,1.1875 0 0 1 -1.1875,1.1875 1.1875,1.1875 0 0 1 -1.1875,-1.1875 1.1875,1.1875 0 0 1 1.1875,-1.1875 z"
       id="rect5987-9" />
  </g>
</svg>
