<?xml version="1.0" encoding="UTF-8" standalone="no"?>
<!-- Created with Inkscape (http://www.inkscape.org/) -->

<svg
   xmlns:dc="http://purl.org/dc/elements/1.1/"
   xmlns:cc="http://creativecommons.org/ns#"
   xmlns:rdf="http://www.w3.org/1999/02/22-rdf-syntax-ns#"
   xmlns:svg="http://www.w3.org/2000/svg"
   xmlns="http://www.w3.org/2000/svg"
   xmlns:sodipodi="http://sodipodi.sourceforge.net/DTD/sodipodi-0.dtd"
   xmlns:inkscape="http://www.inkscape.org/namespaces/inkscape"
   width="5.6999998mm"
   height="5.6999998mm"
   viewBox="0 0 20.19685 20.19685"
   id="svg7558"
   version="1.1"
   inkscape:version="0.91 r13725"
   sodipodi:docname="gear-2.svg">
  <defs
     id="defs7560" />
  <sodipodi:namedview
     id="base"
     pagecolor="#ffffff"
     bordercolor="#666666"
     borderopacity="1.0"
     inkscape:pageopacity="0.0"
     inkscape:pageshadow="2"
     inkscape:zoom="16"
     inkscape:cx="9.869476"
     inkscape:cy="12.024435"
     inkscape:document-units="px"
     inkscape:current-layer="layer1"
     showgrid="false"
     fit-margin-top="0"
     fit-margin-left="0"
     fit-margin-right="0"
     fit-margin-bottom="0"
     inkscape:window-width="1366"
     inkscape:window-height="745"
     inkscape:window-x="-8"
     inkscape:window-y="-8"
     inkscape:window-maximized="1"
     inkscape:snap-intersection-paths="true"
     inkscape:snap-midpoints="true"
     inkscape:object-nodes="true"
     inkscape:object-paths="false"
     inkscape:snap-smooth-nodes="true"
     inkscape:snap-nodes="false" />
  <metadata
     id="metadata7563">
    <rdf:RDF>
      <cc:Work
         rdf:about="">
        <dc:format>image/svg+xml</dc:format>
        <dc:type
           rdf:resource="http://purl.org/dc/dcmitype/StillImage" />
        <dc:title />
      </cc:Work>
    </rdf:RDF>
  </metadata>
  <g
     inkscape:label="Livello 1"
     inkscape:groupmode="layer"
     id="layer1"
     transform="translate(-350.60816,-629.42456)">
    <path
       style="color:#000000;font-style:normal;font-variant:normal;font-weight:normal;font-stretch:normal;font-size:medium;line-height:normal;font-family:sans-serif;text-indent:0;text-align:start;text-decoration:none;text-decoration-line:none;text-decoration-style:solid;text-decoration-color:#000000;letter-spacing:normal;word-spacing:normal;text-transform:none;direction:ltr;block-progression:tb;writing-mode:lr-tb;baseline-shift:baseline;text-anchor:start;white-space:normal;clip-rule:nonzero;display:inline;overflow:visible;visibility:visible;opacity:1;isolation:auto;mix-blend-mode:normal;color-interpolation:sRGB;color-interpolation-filters:linearRGB;solid-color:#000000;solid-opacity:1;fill:#000000;fill-opacity:1;fill-rule:nonzero;stroke:none;stroke-width:2;stroke-linecap:butt;stroke-linejoin:miter;stroke-miterlimit:4;stroke-dasharray:none;stroke-dashoffset:0;stroke-opacity:1;color-rendering:auto;image-rendering:auto;shape-rendering:auto;text-rendering:auto;enable-background:accumulate"
       d="M 10.044922 2.2402344 A 1.8280062 1.0782589 89.602077 0 0 8.9765625 4.0703125 A 1.8280062 1.0782589 89.602077 0 0 9.0429688 4.6796875 C 8.60504 4.7745836 8.1880896 4.9265834 7.7949219 5.1191406 A 1.8280062 1.0782589 54.081103 0 0 7.5097656 4.6308594 A 1.8280062 1.0782589 54.081103 0 0 5.5625 3.7734375 A 1.8280062 1.0782589 54.081103 0 0 5.7558594 5.8847656 A 1.8280062 1.0782589 54.081103 0 0 6.1582031 6.3378906 C 5.8620547 6.6579564 5.6014156 7.0098745 5.3867188 7.3925781 A 1.8280062 1.0782589 18.745994 0 0 4.8964844 7.1757812 A 1.8280062 1.0782589 18.745994 0 0 2.8125 7.6035156 A 1.8280062 1.0782589 18.745994 0 0 4.1894531 9.2128906 A 1.8280062 1.0782589 18.745994 0 0 4.7363281 9.34375 C 4.7040282 9.5841616 4.6816406 9.8272605 4.6816406 10.076172 C 4.6816406 10.297964 4.6988722 10.517286 4.7246094 10.732422 A 1.0782589 1.8280062 72.687836 0 0 4.2460938 10.837891 A 1.0782589 1.8280062 72.687836 0 0 2.8144531 12.410156 A 1.0782589 1.8280062 72.687836 0 0 4.875 12.900391 A 1.0782589 1.8280062 72.687836 0 0 5.3515625 12.707031 C 5.565828 13.099743 5.8314524 13.458835 6.1308594 13.787109 A 1.0782589 1.8280062 37.352727 0 0 5.8242188 14.126953 A 1.0782589 1.8280062 37.352727 0 0 5.5664062 16.236328 A 1.0782589 1.8280062 37.352727 0 0 7.53125 15.445312 A 1.0782589 1.8280062 37.352727 0 0 7.7949219 15.035156 C 8.1986567 15.232889 8.6273876 15.387867 9.078125 15.482422 A 1.0782589 1.8280062 1.8317533 0 0 9.0332031 15.900391 A 1.0782589 1.8280062 1.8317533 0 0 10.048828 17.769531 A 1.0782589 1.8280062 1.8317533 0 0 11.189453 15.982422 A 1.0782589 1.8280062 1.8317533 0 0 11.167969 15.511719 C 11.61584 15.432206 12.04496 15.298391 12.449219 15.117188 A 1.8280062 1.0782589 56.496644 0 0 12.658203 15.488281 A 1.8280062 1.0782589 56.496644 0 0 14.566406 16.425781 A 1.8280062 1.0782589 56.496644 0 0 14.462891 14.308594 A 1.8280062 1.0782589 56.496644 0 0 14.162109 13.921875 C 14.531731 13.541861 14.846526 13.109366 15.095703 12.636719 A 1.8280062 1.0782589 18.536419 0 0 15.509766 12.814453 A 1.8280062 1.0782589 18.536419 0 0 17.591797 12.378906 A 1.8280062 1.0782589 18.536419 0 0 16.208984 10.775391 A 1.8280062 1.0782589 18.536419 0 0 15.699219 10.650391 C 15.718836 10.462028 15.730469 10.26952 15.730469 10.076172 C 15.730469 9.8217554 15.70557 9.5736371 15.671875 9.328125 A 1.0782589 1.8280062 73.20131 0 0 16.15625 9.2246094 A 1.0782589 1.8280062 73.20131 0 0 17.603516 7.6660156 A 1.0782589 1.8280062 73.20131 0 0 15.546875 7.15625 A 1.0782589 1.8280062 73.20131 0 0 15.015625 7.3730469 C 14.752821 6.9088045 14.42555 6.4861769 14.044922 6.1171875 A 1.0782589 1.8280062 34.937186 0 0 14.394531 5.7011719 A 1.0782589 1.8280062 34.937186 0 0 14.564453 3.5820312 A 1.0782589 1.8280062 34.937186 0 0 12.632812 4.4550781 A 1.0782589 1.8280062 34.937186 0 0 12.337891 4.984375 C 11.94106 4.8171104 11.518886 4.7013043 11.082031 4.6308594 A 1.8280062 1.0782589 89.602077 0 0 11.132812 4.0683594 A 1.8280062 1.0782589 89.602077 0 0 10.044922 2.2402344 z M 10.207031 6.5527344 C 12.165081 6.5527344 13.730469 8.1181219 13.730469 10.076172 C 13.730469 12.034222 12.165081 13.599609 10.207031 13.599609 C 8.2489913 13.599609 6.6816406 12.034222 6.6816406 10.076172 C 6.6816406 8.1181219 8.2489912 6.5527344 10.207031 6.5527344 z "
       transform="translate(350.60816,629.42456)"
       id="path4153-8-7" />
  </g>
</svg>
