<?xml version="1.0" encoding="UTF-8" standalone="no"?>
<!-- Created with Inkscape (http://www.inkscape.org/) -->

<svg
   xmlns:dc="http://purl.org/dc/elements/1.1/"
   xmlns:cc="http://creativecommons.org/ns#"
   xmlns:rdf="http://www.w3.org/1999/02/22-rdf-syntax-ns#"
   xmlns:svg="http://www.w3.org/2000/svg"
   xmlns="http://www.w3.org/2000/svg"
   xmlns:sodipodi="http://sodipodi.sourceforge.net/DTD/sodipodi-0.dtd"
   xmlns:inkscape="http://www.inkscape.org/namespaces/inkscape"
   width="5.6999998mm"
   height="5.6999998mm"
   viewBox="0 0 20.19685 20.19685"
   id="svg7558"
   version="1.1"
   inkscape:version="0.91 r13725"
   sodipodi:docname="gear-1.svg">
  <defs
     id="defs7560" />
  <sodipodi:namedview
     id="base"
     pagecolor="#ffffff"
     bordercolor="#666666"
     borderopacity="1.0"
     inkscape:pageopacity="0.0"
     inkscape:pageshadow="2"
     inkscape:zoom="22.627417"
     inkscape:cx="18.186118"
     inkscape:cy="8.7700331"
     inkscape:document-units="px"
     inkscape:current-layer="layer1"
     showgrid="false"
     fit-margin-top="0"
     fit-margin-left="0"
     fit-margin-right="0"
     fit-margin-bottom="0"
     inkscape:window-width="1366"
     inkscape:window-height="745"
     inkscape:window-x="-8"
     inkscape:window-y="-8"
     inkscape:window-maximized="1"
     inkscape:snap-intersection-paths="true"
     inkscape:snap-midpoints="true"
     inkscape:object-nodes="true"
     inkscape:object-paths="false"
     inkscape:snap-smooth-nodes="true"
     inkscape:snap-nodes="true" />
  <metadata
     id="metadata7563">
    <rdf:RDF>
      <cc:Work
         rdf:about="">
        <dc:format>image/svg+xml</dc:format>
        <dc:type
           rdf:resource="http://purl.org/dc/dcmitype/StillImage" />
        <dc:title></dc:title>
      </cc:Work>
    </rdf:RDF>
  </metadata>
  <g
     inkscape:label="Livello 1"
     inkscape:groupmode="layer"
     id="layer1"
     transform="translate(-350.60816,-629.42456)">
    <path
       inkscape:connector-curvature="0"
       style="color:#000000;font-style:normal;font-variant:normal;font-weight:normal;font-stretch:normal;font-size:medium;line-height:normal;font-family:sans-serif;text-indent:0;text-align:start;text-decoration:none;text-decoration-line:none;text-decoration-style:solid;text-decoration-color:#000000;letter-spacing:normal;word-spacing:normal;text-transform:none;direction:ltr;block-progression:tb;writing-mode:lr-tb;baseline-shift:baseline;text-anchor:start;white-space:normal;clip-rule:nonzero;display:inline;overflow:visible;visibility:visible;opacity:1;isolation:auto;mix-blend-mode:normal;color-interpolation:sRGB;color-interpolation-filters:linearRGB;solid-color:#000000;solid-opacity:1;fill:#000000;fill-opacity:1;fill-rule:nonzero;stroke:none;stroke-width:2;stroke-linecap:butt;stroke-linejoin:miter;stroke-miterlimit:4;stroke-dasharray:none;stroke-dashoffset:0;stroke-opacity:1;color-rendering:auto;image-rendering:auto;shape-rendering:auto;text-rendering:auto;enable-background:accumulate"
       d="m 360.68346,631.95558 c -0.50248,0 -1.00496,0.16121 -1.32813,0.48438 -0.4205,0.42051 -0.29023,1.45371 -0.15039,2.15039 -0.32034,0.095 -0.61532,0.23917 -0.90625,0.39258 -0.39254,-0.59204 -1.03757,-1.42774 -1.63671,-1.42774 -0.91406,0 -1.87891,0.96485 -1.87891,1.87891 0,0.59412 0.82067,1.23306 1.41212,1.62695 -0.15884,0.29213 -0.31066,0.5875 -0.41017,0.91016 -0.69705,-0.13714 -1.70321,-0.25773 -2.11719,0.15625 -0.64634,0.64634 -0.64634,2.00991 0,2.65625 0.41395,0.41395 1.42014,0.29533 2.11719,0.1582 0.0993,0.32245 0.24964,0.61818 0.40821,0.91016 -0.59136,0.39404 -1.41016,1.0334 -1.41016,1.62695 0,0.91406 0.96485,1.87696 1.87891,1.87696 0.59796,0 1.24189,-0.83192 1.63477,-1.42383 0.29123,0.1537 0.58747,0.29545 0.90819,0.39062 -0.13975,0.69671 -0.26988,1.73011 0.15039,2.15039 0.64635,0.64634 2.00991,0.64634 2.65625,0 0.42485,-0.42485 0.28994,-1.47786 0.14844,-2.17383 0.31414,-0.0994 0.60188,-0.24846 0.88673,-0.40429 0.38914,0.59252 1.04998,1.46094 1.66014,1.46094 0.91407,-1e-5 1.87696,-0.9629 1.87696,-1.87696 0,-0.61551 -0.88422,-1.28461 -1.47656,-1.67187 0.15024,-0.28339 0.29381,-0.56933 0.38867,-0.88086 0.6943,0.14366 1.77409,0.28841 2.20508,-0.14258 0.64634,-0.64634 0.64634,-2.00991 0,-2.65625 -0.43102,-0.43102 -1.51078,-0.2843 -2.20508,-0.14063 -0.095,-0.31144 -0.23834,-0.59756 -0.38867,-0.88085 0.59234,-0.38723 1.47656,-1.05628 1.47656,-1.67188 0,-0.91406 -0.96289,-1.87891 -1.87696,-1.87891 -0.6109,0 -1.27322,0.87038 -1.6621,1.46289 -0.28469,-0.15555 -0.57281,-0.30312 -0.88672,-0.40234 0.14175,-0.69582 0.27904,-1.75026 -0.14649,-2.17578 -0.32317,-0.32317 -0.82565,-0.48438 -1.32812,-0.48438 z m -0.0449,4.42579 c 1.71069,0 3.07617,1.36547 3.07617,3.07617 0,1.71069 -1.36548,3.07617 -3.07617,3.07617 -1.7107,0 -3.07618,-1.36548 -3.07618,-3.07617 0,-1.7107 1.36548,-3.07617 3.07618,-3.07617 z"
       id="path4153-8-7-7" />
  </g>
</svg>
