<?xml version="1.0" encoding="UTF-8" standalone="no"?>
<!-- Created with Inkscape (http://www.inkscape.org/) -->

<svg
   xmlns:dc="http://purl.org/dc/elements/1.1/"
   xmlns:cc="http://creativecommons.org/ns#"
   xmlns:rdf="http://www.w3.org/1999/02/22-rdf-syntax-ns#"
   xmlns:svg="http://www.w3.org/2000/svg"
   xmlns="http://www.w3.org/2000/svg"
   xmlns:sodipodi="http://sodipodi.sourceforge.net/DTD/sodipodi-0.dtd"
   xmlns:inkscape="http://www.inkscape.org/namespaces/inkscape"
   width="5.6999998mm"
   height="5.6999998mm"
   viewBox="0 0 20.19685 20.19685"
   id="svg7558"
   version="1.1"
   inkscape:version="0.91 r13725"
   sodipodi:docname="graph-down.svg">
  <defs
     id="defs7560" />
  <sodipodi:namedview
     id="base"
     pagecolor="#ffffff"
     bordercolor="#666666"
     borderopacity="1.0"
     inkscape:pageopacity="0.0"
     inkscape:pageshadow="2"
     inkscape:zoom="15.839192"
     inkscape:cx="18.653036"
     inkscape:cy="6.746662"
     inkscape:document-units="px"
     inkscape:current-layer="layer1"
     showgrid="false"
     fit-margin-top="0"
     fit-margin-left="0"
     fit-margin-right="0"
     fit-margin-bottom="0"
     inkscape:window-width="1366"
     inkscape:window-height="745"
     inkscape:window-x="-8"
     inkscape:window-y="-8"
     inkscape:window-maximized="1"
     inkscape:snap-intersection-paths="true"
     inkscape:snap-midpoints="true"
     inkscape:object-nodes="false" />
  <metadata
     id="metadata7563">
    <rdf:RDF>
      <cc:Work
         rdf:about="">
        <dc:format>image/svg+xml</dc:format>
        <dc:type
           rdf:resource="http://purl.org/dc/dcmitype/StillImage" />
        <dc:title></dc:title>
      </cc:Work>
    </rdf:RDF>
  </metadata>
  <g
     inkscape:label="Livello 1"
     inkscape:groupmode="layer"
     id="layer1"
     transform="translate(-350.60816,-629.42456)">
    <path
       inkscape:connector-curvature="0"
       style="opacity:1;fill:#000000;fill-opacity:1;fill-rule:nonzero;stroke:none;stroke-width:1;stroke-miterlimit:4;stroke-dasharray:none;stroke-dashoffset:0;stroke-opacity:1"
       d="m 360.01964,630.68799 0,1.09961 a 1.640625,0.5703125 0 0 0 -1.20312,0.54882 1.640625,0.5703125 0 0 0 1.64062,0.57032 1.640625,0.5703125 0 0 0 1.64063,-0.57032 1.640625,0.5703125 0 0 0 -1.20313,-0.54882 l 0,-1.09961 -0.875,0 z m -5.22265,2.53906 c -0.46519,0 -0.83985,0.37466 -0.83985,0.83984 l 0,7.57227 c 0,0.46518 0.37466,0.83789 0.83985,0.83789 l 11.32031,0 c 0.46518,0 0.83984,-0.37271 0.83984,-0.83789 l 0,-7.57227 c 0,-0.46518 -0.37466,-0.83984 -0.83984,-0.83984 l -11.32031,0 z m 1.4082,1.35547 2.40234,4.1582 1.80274,-3.12305 3.25586,3.25586 0.88086,-0.88086 0.83789,3.12891 -3.12891,-0.83789 0.85742,-0.85938 -2.53515,-2.53515 -1.97071,3.41406 -3.07812,-5.33008 0.67578,-0.39062 z m -2.24805,8.86718 0,1 4.20117,0 -1.30859,2.26563 0.86524,0.5 1.5957,-2.76563 2.02344,0 1.59765,2.76563 0.86328,-0.5 -1.30664,-2.26563 4.46875,0 0,-1 -13,0 z"
       id="rect6619" />
  </g>
</svg>
