<?xml version="1.0" encoding="UTF-8" standalone="no"?>
<!-- Created with Inkscape (http://www.inkscape.org/) -->

<svg
   xmlns:dc="http://purl.org/dc/elements/1.1/"
   xmlns:cc="http://creativecommons.org/ns#"
   xmlns:rdf="http://www.w3.org/1999/02/22-rdf-syntax-ns#"
   xmlns:svg="http://www.w3.org/2000/svg"
   xmlns="http://www.w3.org/2000/svg"
   xmlns:sodipodi="http://sodipodi.sourceforge.net/DTD/sodipodi-0.dtd"
   xmlns:inkscape="http://www.inkscape.org/namespaces/inkscape"
   width="5.6999998mm"
   height="5.6999998mm"
   viewBox="0 0 20.19685 20.19685"
   id="svg7558"
   version="1.1"
   inkscape:version="0.91 r13725"
   sodipodi:docname="posta-open.svg">
  <defs
     id="defs7560" />
  <sodipodi:namedview
     id="base"
     pagecolor="#ffffff"
     bordercolor="#666666"
     borderopacity="1.0"
     inkscape:pageopacity="0.0"
     inkscape:pageshadow="2"
     inkscape:zoom="15.839192"
     inkscape:cx="18.653036"
     inkscape:cy="6.746662"
     inkscape:document-units="px"
     inkscape:current-layer="layer1"
     showgrid="false"
     fit-margin-top="0"
     fit-margin-left="0"
     fit-margin-right="0"
     fit-margin-bottom="0"
     inkscape:window-width="1366"
     inkscape:window-height="745"
     inkscape:window-x="-8"
     inkscape:window-y="-8"
     inkscape:window-maximized="1" />
  <metadata
     id="metadata7563">
    <rdf:RDF>
      <cc:Work
         rdf:about="">
        <dc:format>image/svg+xml</dc:format>
        <dc:type
           rdf:resource="http://purl.org/dc/dcmitype/StillImage" />
        <dc:title></dc:title>
      </cc:Work>
    </rdf:RDF>
  </metadata>
  <g
     inkscape:label="Livello 1"
     inkscape:groupmode="layer"
     id="layer1"
     transform="translate(-350.60816,-629.42456)">
    <path
       inkscape:connector-curvature="0"
       style="opacity:1;fill:#000000;fill-opacity:1;fill-rule:nonzero;stroke:none;stroke-width:1;stroke-miterlimit:4;stroke-dasharray:none;stroke-dashoffset:0;stroke-opacity:1"
       d="m 360.69897,630.01104 -8.64063,4.98828 0,1.16015 c 0,0.46519 0.37466,0.83985 0.83985,0.83985 l 15.60156,0 c 0.46518,0 0.83984,-0.37465 0.83984,-0.83985 l 0,-1.16015 -8.64062,-4.98828 z m 8.64062,7.84961 -5.05273,2.91992 5.05273,2.91797 0,-5.83789 z m -17.28125,0.002 0,5.83398 5.05274,-2.91601 -5.05274,-2.91797 z m 6.02539,3.47852 -6.02539,3.47851 0,0.48242 c 0,0.46519 0.37466,0.83985 0.83985,0.83985 l 15.60156,0 c 0.46518,0 0.83984,-0.37466 0.83984,-0.83985 l 0,-0.48242 -6.02539,-3.47851 -2.61523,1.50976 -2.61524,-1.50976 z"
       id="path7266" />
  </g>
</svg>
