<?xml version="1.0" encoding="UTF-8" standalone="no"?>
<!-- Created with Inkscape (http://www.inkscape.org/) -->

<svg
   xmlns:dc="http://purl.org/dc/elements/1.1/"
   xmlns:cc="http://creativecommons.org/ns#"
   xmlns:rdf="http://www.w3.org/1999/02/22-rdf-syntax-ns#"
   xmlns:svg="http://www.w3.org/2000/svg"
   xmlns="http://www.w3.org/2000/svg"
   xmlns:sodipodi="http://sodipodi.sourceforge.net/DTD/sodipodi-0.dtd"
   xmlns:inkscape="http://www.inkscape.org/namespaces/inkscape"
   width="5.6999998mm"
   height="5.6999998mm"
   viewBox="0 0 20.19685 20.19685"
   id="svg7558"
   version="1.1"
   inkscape:version="0.91 r13725"
   sodipodi:docname="share.svg">
  <defs
     id="defs7560" />
  <sodipodi:namedview
     id="base"
     pagecolor="#ffffff"
     bordercolor="#666666"
     borderopacity="1.0"
     inkscape:pageopacity="0.0"
     inkscape:pageshadow="2"
     inkscape:zoom="22.627417"
     inkscape:cx="5.7044579"
     inkscape:cy="9.137885"
     inkscape:document-units="px"
     inkscape:current-layer="layer1"
     showgrid="false"
     fit-margin-top="0"
     fit-margin-left="0"
     fit-margin-right="0"
     fit-margin-bottom="0"
     inkscape:window-width="1366"
     inkscape:window-height="745"
     inkscape:window-x="-8"
     inkscape:window-y="-8"
     inkscape:window-maximized="1"
     inkscape:snap-intersection-paths="true"
     inkscape:snap-midpoints="true"
     inkscape:object-nodes="true"
     inkscape:object-paths="false"
     inkscape:snap-smooth-nodes="true"
     inkscape:snap-nodes="false" />
  <metadata
     id="metadata7563">
    <rdf:RDF>
      <cc:Work
         rdf:about="">
        <dc:format>image/svg+xml</dc:format>
        <dc:type
           rdf:resource="http://purl.org/dc/dcmitype/StillImage" />
        <dc:title />
      </cc:Work>
    </rdf:RDF>
  </metadata>
  <g
     inkscape:label="Livello 1"
     inkscape:groupmode="layer"
     id="layer1"
     transform="translate(-350.60816,-629.42456)">
    <path
       style="opacity:1;fill:#000000;fill-opacity:1;fill-rule:nonzero;stroke:none;stroke-width:1;stroke-miterlimit:4;stroke-dasharray:none;stroke-dashoffset:0;stroke-opacity:1"
       d="M 14.794922 2.1660156 A 2.7179418 2.7179418 0 0 0 12.076172 4.8828125 A 2.7179418 2.7179418 0 0 0 12.097656 5.203125 L 6.7792969 8.2734375 A 2.7179418 2.7179418 0 0 0 4.828125 7.4472656 A 2.7179418 2.7179418 0 0 0 2.109375 10.164062 A 2.7179418 2.7179418 0 0 0 4.828125 12.882812 A 2.7179418 2.7179418 0 0 0 6.9414062 11.869141 L 12.125 14.861328 A 2.7179418 2.7179418 0 0 0 12.076172 15.357422 A 2.7179418 2.7179418 0 0 0 14.794922 18.076172 A 2.7179418 2.7179418 0 0 0 17.511719 15.357422 A 2.7179418 2.7179418 0 0 0 14.794922 12.640625 A 2.7179418 2.7179418 0 0 0 12.681641 13.650391 L 7.5 10.660156 A 2.7179418 2.7179418 0 0 0 7.546875 10.164062 A 2.7179418 2.7179418 0 0 0 7.4414062 9.4199219 L 12.582031 6.4550781 A 2.7179418 2.7179418 0 0 0 14.794922 7.6015625 A 2.7179418 2.7179418 0 0 0 17.511719 4.8828125 A 2.7179418 2.7179418 0 0 0 14.794922 2.1660156 z "
       transform="translate(350.60816,629.42456)"
       id="path7443" />
  </g>
</svg>
