<?xml version="1.0" encoding="UTF-8" standalone="no"?>
<!-- Created with Inkscape (http://www.inkscape.org/) -->

<svg
   xmlns:dc="http://purl.org/dc/elements/1.1/"
   xmlns:cc="http://creativecommons.org/ns#"
   xmlns:rdf="http://www.w3.org/1999/02/22-rdf-syntax-ns#"
   xmlns:svg="http://www.w3.org/2000/svg"
   xmlns="http://www.w3.org/2000/svg"
   xmlns:sodipodi="http://sodipodi.sourceforge.net/DTD/sodipodi-0.dtd"
   xmlns:inkscape="http://www.inkscape.org/namespaces/inkscape"
   width="5.6999998mm"
   height="5.6999998mm"
   viewBox="0 0 20.19685 20.19685"
   id="svg7558"
   version="1.1"
   inkscape:version="0.91 r13725"
   sodipodi:docname="sound-2wave.svg">
  <defs
     id="defs7560" />
  <sodipodi:namedview
     id="base"
     pagecolor="#ffffff"
     bordercolor="#666666"
     borderopacity="1.0"
     inkscape:pageopacity="0.0"
     inkscape:pageshadow="2"
     inkscape:zoom="22.627417"
     inkscape:cx="4.6419928"
     inkscape:cy="9.8014762"
     inkscape:document-units="px"
     inkscape:current-layer="layer1"
     showgrid="false"
     fit-margin-top="0"
     fit-margin-left="0"
     fit-margin-right="0"
     fit-margin-bottom="0"
     inkscape:window-width="1366"
     inkscape:window-height="745"
     inkscape:window-x="-8"
     inkscape:window-y="-8"
     inkscape:window-maximized="1"
     inkscape:snap-intersection-paths="true"
     inkscape:snap-midpoints="false"
     inkscape:object-nodes="false"
     inkscape:object-paths="false"
     inkscape:snap-smooth-nodes="false"
     inkscape:snap-nodes="true" />
  <metadata
     id="metadata7563">
    <rdf:RDF>
      <cc:Work
         rdf:about="">
        <dc:format>image/svg+xml</dc:format>
        <dc:type
           rdf:resource="http://purl.org/dc/dcmitype/StillImage" />
        <dc:title></dc:title>
      </cc:Work>
    </rdf:RDF>
  </metadata>
  <g
     inkscape:label="Livello 1"
     inkscape:groupmode="layer"
     id="layer1"
     transform="translate(-350.60816,-629.42456)">
    <path
       inkscape:connector-curvature="0"
       style="opacity:1;fill:#000000;fill-opacity:1;fill-rule:nonzero;stroke:none;stroke-width:2;stroke-miterlimit:4;stroke-dasharray:none;stroke-dashoffset:0;stroke-opacity:1"
       d="m 361.92687,635.01982 -4.16016,2.37109 -1.26757,0.72266 -1.8711,0 0,1.06641 0,1.17968 0,1.11328 1.90235,0 1.20898,0.70704 4.13477,2.41796 0.0273,-4.78906 0.0254,-4.78906 z m 0.94727,0.42187 0,1 c 1.20371,0 2.31416,0.64115 2.91601,1.6836 0.60186,1.04244 0.60186,2.32474 0,3.36719 -0.60185,1.04244 -1.7123,1.68359 -2.91601,1.68359 l 0,1 c 1.55937,0 3.00351,-0.83314 3.7832,-2.18359 0.77969,-1.35046 0.77969,-3.01673 0,-4.36719 -0.77969,-1.35046 -2.22383,-2.1836 -3.7832,-2.1836 z m 0,1.67969 0,1 c 0.93428,0 1.68242,0.74347 1.6875,1.67774 0.005,0.93427 -0.73374,1.68711 -1.66797,1.69726 l 0.01,1 c 1.47272,-0.016 2.66621,-1.22839 2.65821,-2.70117 -0.008,-1.47278 -1.2147,-2.67383 -2.6875,-2.67383 z"
       id="path5157-5" />
  </g>
</svg>
