<?xml version="1.0" encoding="UTF-8" standalone="no"?>
<!-- Created with Inkscape (http://www.inkscape.org/) -->

<svg
   xmlns:dc="http://purl.org/dc/elements/1.1/"
   xmlns:cc="http://creativecommons.org/ns#"
   xmlns:rdf="http://www.w3.org/1999/02/22-rdf-syntax-ns#"
   xmlns:svg="http://www.w3.org/2000/svg"
   xmlns="http://www.w3.org/2000/svg"
   xmlns:sodipodi="http://sodipodi.sourceforge.net/DTD/sodipodi-0.dtd"
   xmlns:inkscape="http://www.inkscape.org/namespaces/inkscape"
   width="5.6999998mm"
   height="5.6999998mm"
   viewBox="0 0 20.19685 20.19685"
   id="svg7558"
   version="1.1"
   inkscape:version="0.91 r13725"
   sodipodi:docname="sound-3wave.svg">
  <defs
     id="defs7560" />
  <sodipodi:namedview
     id="base"
     pagecolor="#ffffff"
     bordercolor="#666666"
     borderopacity="1.0"
     inkscape:pageopacity="0.0"
     inkscape:pageshadow="2"
     inkscape:zoom="16"
     inkscape:cx="4.5436383"
     inkscape:cy="11.517304"
     inkscape:document-units="px"
     inkscape:current-layer="layer1"
     showgrid="false"
     fit-margin-top="0"
     fit-margin-left="0"
     fit-margin-right="0"
     fit-margin-bottom="0"
     inkscape:window-width="1366"
     inkscape:window-height="745"
     inkscape:window-x="-8"
     inkscape:window-y="-8"
     inkscape:window-maximized="1"
     inkscape:snap-intersection-paths="false"
     inkscape:snap-midpoints="true"
     inkscape:object-nodes="false"
     inkscape:object-paths="false"
     inkscape:snap-smooth-nodes="true"
     inkscape:snap-nodes="true" />
  <metadata
     id="metadata7563">
    <rdf:RDF>
      <cc:Work
         rdf:about="">
        <dc:format>image/svg+xml</dc:format>
        <dc:type
           rdf:resource="http://purl.org/dc/dcmitype/StillImage" />
        <dc:title></dc:title>
      </cc:Work>
    </rdf:RDF>
  </metadata>
  <g
     inkscape:label="Livello 1"
     inkscape:groupmode="layer"
     id="layer1"
     transform="translate(-350.60816,-629.42456)">
    <path
       inkscape:connector-curvature="0"
       style="opacity:1;fill:#000000;fill-opacity:1;fill-rule:nonzero;stroke:none;stroke-width:2;stroke-miterlimit:4;stroke-dasharray:none;stroke-dashoffset:0;stroke-opacity:1"
       d="m 362.87413,633.71904 0,1 c 1.82193,0 3.50326,0.97173 4.41211,2.55078 0.90885,1.57905 0.90345,3.52031 -0.0117,5.0957 -0.91518,1.57539 -2.59996,2.54052 -4.42187,2.53321 l -0.004,1 c 2.17804,0.009 4.19694,-1.14793 5.29102,-3.03125 1.09407,-1.88333 1.09824,-4.20995 0.0117,-6.09766 -1.0865,-1.88771 -3.09929,-3.05078 -5.27735,-3.05078 z m -0.94726,1.30078 -4.16016,2.37109 -1.26758,0.72266 -1.87109,0 0,1.06641 0,1.17968 0,1.11328 1.90234,0 1.20899,0.70704 4.13476,2.41796 0.0273,-4.78906 0.0254,-4.78906 z m 0.94726,0.42187 0,1 c 1.20371,0 2.31416,0.64115 2.91602,1.6836 0.60185,1.04244 0.60185,2.32474 0,3.36719 -0.60186,1.04244 -1.71231,1.68359 -2.91602,1.68359 l 0,1 c 1.55938,0 3.00157,-0.83314 3.78125,-2.18359 0.77969,-1.35046 0.77969,-3.01673 0,-4.36719 -0.77968,-1.35046 -2.22187,-2.1836 -3.78125,-2.1836 z m 0,1.67969 0,1 c 0.93429,0 1.68243,0.74347 1.6875,1.67774 0.005,0.93427 -0.73569,1.68711 -1.66992,1.69726 l 0.0117,1 c 1.47272,-0.016 2.66621,-1.22839 2.6582,-2.70117 -0.008,-1.47278 -1.21469,-2.67383 -2.6875,-2.67383 z"
       id="path5157" />
  </g>
</svg>
