<?xml version="1.0" encoding="UTF-8" standalone="no"?>
<!-- Created with Inkscape (http://www.inkscape.org/) -->

<svg
   xmlns:dc="http://purl.org/dc/elements/1.1/"
   xmlns:cc="http://creativecommons.org/ns#"
   xmlns:rdf="http://www.w3.org/1999/02/22-rdf-syntax-ns#"
   xmlns:svg="http://www.w3.org/2000/svg"
   xmlns="http://www.w3.org/2000/svg"
   xmlns:sodipodi="http://sodipodi.sourceforge.net/DTD/sodipodi-0.dtd"
   xmlns:inkscape="http://www.inkscape.org/namespaces/inkscape"
   width="5.6999998mm"
   height="5.6999998mm"
   viewBox="0 0 20.19685 20.19685"
   id="svg7558"
   version="1.1"
   inkscape:version="0.91 r13725"
   sodipodi:docname="tavoletta.svg">
  <defs
     id="defs7560" />
  <sodipodi:namedview
     id="base"
     pagecolor="#ffffff"
     bordercolor="#666666"
     borderopacity="1.0"
     inkscape:pageopacity="0.0"
     inkscape:pageshadow="2"
     inkscape:zoom="15.839192"
     inkscape:cx="18.653036"
     inkscape:cy="6.746662"
     inkscape:document-units="px"
     inkscape:current-layer="layer1"
     showgrid="false"
     fit-margin-top="0"
     fit-margin-left="0"
     fit-margin-right="0"
     fit-margin-bottom="0"
     inkscape:window-width="1366"
     inkscape:window-height="745"
     inkscape:window-x="-8"
     inkscape:window-y="-8"
     inkscape:window-maximized="1"
     inkscape:snap-intersection-paths="true"
     inkscape:snap-midpoints="true"
     inkscape:object-nodes="false" />
  <metadata
     id="metadata7563">
    <rdf:RDF>
      <cc:Work
         rdf:about="">
        <dc:format>image/svg+xml</dc:format>
        <dc:type
           rdf:resource="http://purl.org/dc/dcmitype/StillImage" />
        <dc:title></dc:title>
      </cc:Work>
    </rdf:RDF>
  </metadata>
  <g
     inkscape:label="Livello 1"
     inkscape:groupmode="layer"
     id="layer1"
     transform="translate(-350.60816,-629.42456)">
    <path
       inkscape:connector-curvature="0"
       style="opacity:1;fill:#000000;fill-opacity:1;fill-rule:nonzero;stroke:none;stroke-width:2;stroke-miterlimit:4;stroke-dasharray:none;stroke-dashoffset:0;stroke-opacity:1"
       d="m 360.69164,630.42103 c -0.41854,-0.005 -0.84651,0.12201 -1.18555,0.41406 -0.33903,0.29205 -0.56054,0.75799 -0.56054,1.29492 l 0,2.54102 0.5,0 2.98242,0 0,-2.54102 c 0,-0.52591 -0.22619,-0.98446 -0.56055,-1.27539 -0.33436,-0.29092 -0.75724,-0.42814 -1.17577,-0.43359 z m -0.0117,1 c 0.20216,0.003 0.40008,0.0753 0.53125,0.18945 0.13117,0.11413 0.2168,0.25556 0.2168,0.51953 l 0,1.54102 -1.48242,0 0,-1.54102 c 0,-0.2853 0.0864,-0.42815 0.21289,-0.53711 0.12649,-0.10895 0.31932,-0.17451 0.52148,-0.17187 z m -4.2793,1.64648 c -1.07728,0 -1.94531,0.86804 -1.94531,1.94532 l 0,9.89843 c -1e-5,1.07728 0.86803,1.94532 1.94531,1.94532 l 8.57422,0 c 1.07727,0 1.94336,-0.86804 1.94336,-1.94532 l 0,-9.89843 c 0,-1.07728 -0.86609,-1.94532 -1.94336,-1.94532 l -1.72461,0 0,2.3418 -5.12695,0 0,-2.3418 -1.72266,0 z"
       id="rect5636" />
  </g>
</svg>
