<?xml version="1.0" encoding="UTF-8" standalone="no"?>
<!-- Created with Inkscape (http://www.inkscape.org/) -->

<svg
   xmlns:dc="http://purl.org/dc/elements/1.1/"
   xmlns:cc="http://creativecommons.org/ns#"
   xmlns:rdf="http://www.w3.org/1999/02/22-rdf-syntax-ns#"
   xmlns:svg="http://www.w3.org/2000/svg"
   xmlns="http://www.w3.org/2000/svg"
   xmlns:sodipodi="http://sodipodi.sourceforge.net/DTD/sodipodi-0.dtd"
   xmlns:inkscape="http://www.inkscape.org/namespaces/inkscape"
   width="5.6999998mm"
   height="5.6999998mm"
   viewBox="0 0 20.19685 20.19685"
   id="svg7558"
   version="1.1"
   inkscape:version="0.91 r13725"
   sodipodi:docname="wake.svg">
  <defs
     id="defs7560" />
  <sodipodi:namedview
     id="base"
     pagecolor="#ffffff"
     bordercolor="#666666"
     borderopacity="1.0"
     inkscape:pageopacity="0.0"
     inkscape:pageshadow="2"
     inkscape:zoom="22.627417"
     inkscape:cx="7.9835192"
     inkscape:cy="9.8150985"
     inkscape:document-units="px"
     inkscape:current-layer="layer1"
     showgrid="false"
     fit-margin-top="0"
     fit-margin-left="0"
     fit-margin-right="0"
     fit-margin-bottom="0"
     inkscape:window-width="1366"
     inkscape:window-height="745"
     inkscape:window-x="-8"
     inkscape:window-y="-8"
     inkscape:window-maximized="1"
     inkscape:snap-intersection-paths="true"
     inkscape:snap-midpoints="true"
     inkscape:object-nodes="true"
     inkscape:object-paths="false"
     inkscape:snap-smooth-nodes="true"
     inkscape:snap-nodes="true" />
  <metadata
     id="metadata7563">
    <rdf:RDF>
      <cc:Work
         rdf:about="">
        <dc:format>image/svg+xml</dc:format>
        <dc:type
           rdf:resource="http://purl.org/dc/dcmitype/StillImage" />
        <dc:title></dc:title>
      </cc:Work>
    </rdf:RDF>
  </metadata>
  <g
     inkscape:label="Livello 1"
     inkscape:groupmode="layer"
     id="layer1"
     transform="translate(-350.60816,-629.42456)">
    <g
       transform="translate(247.22653,273.60664)"
       id="g8376">
      <path
         inkscape:connector-curvature="0"
         id="path4153-8"
         d="m 109.70898,358.23242 a 1.1160715,1.1160715 0 0 0 -0.60156,0.17774 c -0.22413,0.10367 -0.64073,0.3068 -1.10156,0.66211 -0.6118,0.47172 -1.08789,1.14648 -1.08789,1.14648 l 0.01,0.008 a 1.1160715,1.1160715 0 0 0 -0.1875,0.61719 1.1160715,1.1160715 0 0 0 1.11719,1.11719 1.1160715,1.1160715 0 0 0 0.84961,-0.39453 l 0.002,0.002 c 0,0 0.39651,-0.53711 0.64844,-0.74219 0.25193,-0.20508 0.83985,-0.47265 0.83985,-0.47265 l 0,-0.002 a 1.1160715,1.1160715 0 0 0 0.6289,-1.00195 1.1160715,1.1160715 0 0 0 -1.11719,-1.11719 z m 7.58594,0 0,0.002 a 1.1160715,1.1160715 0 0 0 -1.11719,1.11718 1.1160715,1.1160715 0 0 0 0.62891,1.00196 l 0,0.002 c 0,0 0.58791,0.26757 0.83984,0.47265 0.25193,0.20509 0.64844,0.74219 0.64844,0.74219 l 0.002,-0.002 a 1.1160715,1.1160715 0 0 0 0.8496,0.39453 1.1160715,1.1160715 0 0 0 1.11719,-1.11719 1.1160715,1.1160715 0 0 0 -0.1875,-0.61718 l 0.01,-0.01 c 0,0 -0.47609,-0.67476 -1.08789,-1.14648 -0.46083,-0.35531 -0.87744,-0.55844 -1.10157,-0.66211 a 1.1160715,1.1160715 0 0 0 -0.60156,-0.17774 z m -3.90234,2.91016 c -2.98199,0 -5.41602,2.43403 -5.41602,5.41601 0,1.30763 0.48664,2.49379 1.26367,3.43164 -0.19004,0.64087 -0.64457,1.89173 -1.4375,2.38086 -1.08281,0.66796 0.25715,0.75522 0.56836,0.74219 0.82364,-0.0345 1.40942,-1.52207 1.67188,-2.33398 0.92531,0.73662 2.08024,1.19531 3.34961,1.19531 1.31559,0 2.50889,-0.49178 3.44922,-1.27734 0.25008,0.79239 0.85557,2.38054 1.70312,2.41601 0.31121,0.013 1.65117,-0.0742 0.56836,-0.74219 -0.86026,-0.53067 -1.31593,-1.92819 -1.47266,-2.49804 0.72003,-0.91974 1.16797,-2.06103 1.16797,-3.31446 0,-2.98198 -2.43402,-5.41601 -5.41601,-5.41601 z m 0,1.5 c 2.17133,0 3.91601,1.74469 3.91601,3.91601 0,2.17133 -1.74468,3.91602 -3.91601,3.91602 -2.17133,0 -3.91602,-1.74469 -3.91602,-3.91602 0,-2.17132 1.74469,-3.91601 3.91602,-3.91601 z m -0.0645,0.9375 c 0,0 -0.55469,1.17757 -0.5,1.79687 0.0508,0.57549 0.75,1.5625 0.75,1.5625 1e-5,0 0.47141,-1.07565 0.4375,-1.64062 -0.037,-0.61594 -0.6875,-1.71875 -0.6875,-1.71875 z m 0.25,3.35937 c 0,0 -0.76301,0.0661 -1.07617,0.26172 -0.34142,0.21321 -0.77148,0.92969 -0.77148,0.92969 0,0 0.84772,-0.049 1.18555,-0.27344 0.31392,-0.20853 0.6621,-0.91797 0.6621,-0.91797 z"
         style="color:#000000;font-style:normal;font-variant:normal;font-weight:normal;font-stretch:normal;font-size:medium;line-height:normal;font-family:sans-serif;text-indent:0;text-align:start;text-decoration:none;text-decoration-line:none;text-decoration-style:solid;text-decoration-color:#000000;letter-spacing:normal;word-spacing:normal;text-transform:none;direction:ltr;block-progression:tb;writing-mode:lr-tb;baseline-shift:baseline;text-anchor:start;white-space:normal;clip-rule:nonzero;display:inline;overflow:visible;visibility:visible;opacity:1;isolation:auto;mix-blend-mode:normal;color-interpolation:sRGB;color-interpolation-filters:linearRGB;solid-color:#000000;solid-opacity:1;fill:#000000;fill-opacity:1;fill-rule:nonzero;stroke:none;stroke-width:1.5;stroke-linecap:butt;stroke-linejoin:miter;stroke-miterlimit:4;stroke-dasharray:none;stroke-dashoffset:0;stroke-opacity:1;color-rendering:auto;image-rendering:auto;shape-rendering:auto;text-rendering:auto;enable-background:accumulate" />
      <ellipse
         ry="0.859375"
         rx="1.3504465"
         cy="359.4939"
         cx="113.3817"
         id="path4537"
         style="opacity:1;fill:#000000;fill-opacity:1;fill-rule:nonzero;stroke:none;stroke-width:1.5;stroke-miterlimit:4;stroke-dasharray:none;stroke-dashoffset:0;stroke-opacity:1" />
    </g>
  </g>
</svg>
